# xmcd
#
# Track frame offsets: 
#        150
#        20430
#        40662
#        59907
#        67777
#        83257
#        100787
#        121967
#        141232
#        161097
#
# Disc length: 2241 seconds
#
# Revision: 7
# Processed by: cddbd v1.5.2PL0 Copyright (c) Steve Scherf et al.
# Submitted via: ExactAudioCopy v1.3
#
DISCID=7b08bf0a
DTITLE=Roxy Music - Avalon
DYEAR=1982
DGENRE=Rock
TTITLE0=More Than This
TTITLE1=The Space Between
TTITLE2=Avalon
TTITLE3=India
TTITLE4=While My Heart Is Still Beating
TTITLE5=The Main Thing
TTITLE6=Take a Chance with Me
TTITLE7=To Turn You On
TTITLE8=True to Life
TTITLE9=Tara
EXTD=YEAR: 1998
EXTT0=
EXTT1=
EXTT2=
EXTT3=
EXTT4=
EXTT5=
EXTT6=
EXTT7=
EXTT8=
EXTT9=
PLAYORDER=
